HIERARCHY
ROOT Hips
{
  OFFSET 5.84602e-005 68.8428 3.50346
  CHANNELS 6 Xposition Yposition Zposition Zrotation Xrotation Yrotation
  JOINT Spine
  {
    OFFSET 0 8.597 -4.6522
    CHANNELS 3 Zrotation Xrotation Yrotation
    JOINT Spine1
    {
      OFFSET 0 7.8454 0.4098
      CHANNELS 3 Zrotation Xrotation Yrotation
      JOINT Spine2
      {
        OFFSET 0 9.7078 -2.1609
        CHANNELS 3 Zrotation Xrotation Yrotation
        JOINT Neck
        {
          OFFSET 0 21.8761 -0.4549
          CHANNELS 3 Zrotation Xrotation Yrotation
          JOINT Head
          {
            OFFSET 0 12.3537 3.3602
            CHANNELS 3 Zrotation Xrotation Yrotation
            End Site
            {
              OFFSET 0.0001 18.9506 0.5657
            }
          }
        }
        JOINT LeftShoulder
        {
          OFFSET 2.2086 21.1115 7.2329
          CHANNELS 3 Zrotation Xrotation Yrotation
          JOINT LeftArm
          {
            OFFSET 13.1193 3.0282 -4.8998
            CHANNELS 3 Zrotation Xrotation Yrotation
            JOINT LeftForeArm
            {
              OFFSET 27.4081 -0.0973053 -0.2375
              CHANNELS 3 Zrotation Xrotation Yrotation
              JOINT LeftHand
              {
                OFFSET 22.8641 0.0662994 -0.1369
                CHANNELS 3 Zrotation Xrotation Yrotation
                JOINT LeftHandIndex1
                {
                  OFFSET 8.8614 0.775009 2.4612
                  CHANNELS 3 Zrotation Xrotation Yrotation
                  JOINT LeftHandIndex2
                  {
                    OFFSET 3.3146 -0.808304 0.5841
                    CHANNELS 3 Zrotation Xrotation Yrotation
                    JOINT LeftHandIndex3
                    {
                      OFFSET 2.2628 -0.552002 0.3989
                      CHANNELS 3 Zrotation Xrotation Yrotation
                      End Site
                      {
                        OFFSET 1.6102 -0.4807 0.2612
                      }
                    }
                  }
                }
                JOINT LeftHandMiddle1
                {
                  OFFSET 8.9937 0.895004 0.2143
                  CHANNELS 3 Zrotation Xrotation Yrotation
                  JOINT LeftHandMiddle2
                  {
                    OFFSET 4.0984 0.0113983 -0.0242
                    CHANNELS 3 Zrotation Xrotation Yrotation
                    JOINT LeftHandMiddle3
                    {
                      OFFSET 2.2716 0.00689697 -0.0138001
                      CHANNELS 3 Zrotation Xrotation Yrotation
                      End Site
                      {
                        OFFSET 2.0404 -0.1441 0.0027
                      }
                    }
                  }
                }
                JOINT LeftHandRing1
                {
                  OFFSET 8.5234 0.597198 -2.0164
                  CHANNELS 3 Zrotation Xrotation Yrotation
                  JOINT LeftHandRing2
                  {
                    OFFSET 3.7188 -0.188293 -0.2328
                    CHANNELS 3 Zrotation Xrotation Yrotation
                    JOINT LeftHandRing3
                    {
                      OFFSET 2.1191 -0.106598 -0.1332
                      CHANNELS 3 Zrotation Xrotation Yrotation
                      End Site
                      {
                        OFFSET 1.8737 -0.2304 -0.0886
                      }
                    }
                  }
                }
                JOINT LeftHandPinky1
                {
                  OFFSET 7.9094 -0.601089 -3.4825
                  CHANNELS 3 Zrotation Xrotation Yrotation
                  JOINT LeftHandPinky2
                  {
                    OFFSET 2.2874 -0.477005 -0.6314
                    CHANNELS 3 Zrotation Xrotation Yrotation
                    JOINT LeftHandPinky3
                    {
                      OFFSET 1.6774 -0.349396 -0.4633
                      CHANNELS 3 Zrotation Xrotation Yrotation
                      End Site
                      {
                        OFFSET 1.4888 -0.4091 -0.3416
                      }
                    }
                  }
                }
                JOINT LeftHandThumb1
                {
                  OFFSET 1.833 -1.3875 1.3896
                  CHANNELS 3 Zrotation Xrotation Yrotation
                  JOINT LeftHandThumb2
                  {
                    OFFSET 3.4129 -1.121 2.5732
                    CHANNELS 3 Zrotation Xrotation Yrotation
                    JOINT LeftHandThumb3
                    {
                      OFFSET 2.2474 -0.804199 1.6192
                      CHANNELS 3 Zrotation Xrotation Yrotation
                      End Site
                      {
                        OFFSET 1.6527 -0.5689 1.1317
                      }
                    }
                  }
                }
              }
            }
          }
        }
        JOINT RightShoulder
        {
          OFFSET -2.2086 21.1115 7.2329
          CHANNELS 3 Zrotation Xrotation Yrotation
          JOINT RightArm
          {
            OFFSET -13.1216 3.0287 -4.9007
            CHANNELS 3 Zrotation Xrotation Yrotation
            JOINT RightForeArm
            {
              OFFSET -27.4081 -0.0973053 -0.2375
              CHANNELS 3 Zrotation Xrotation Yrotation
              JOINT RightHand
              {
                OFFSET -22.8641 0.0664063 -0.1369
                CHANNELS 3 Zrotation Xrotation Yrotation
                JOINT RightHandIndex1
                {
                  OFFSET -8.8614 0.774994 2.4612
                  CHANNELS 3 Zrotation Xrotation Yrotation
                  JOINT RightHandIndex2
                  {
                    OFFSET -3.3146 -0.808304 0.5841
                    CHANNELS 3 Zrotation Xrotation Yrotation
                    JOINT RightHandIndex3
                    {
                      OFFSET -2.2628 -0.552002 0.3989
                      CHANNELS 3 Zrotation Xrotation Yrotation
                      End Site
                      {
                        OFFSET -1.6102 -0.4807 0.2612
                      }
                    }
                  }
                }
                JOINT RightHandMiddle1
                {
                  OFFSET -8.9937 0.894989 0.2143
                  CHANNELS 3 Zrotation Xrotation Yrotation
                  JOINT RightHandMiddle2
                  {
                    OFFSET -4.0984 0.0113983 -0.0242
                    CHANNELS 3 Zrotation Xrotation Yrotation
                    JOINT RightHandMiddle3
                    {
                      OFFSET -2.2716 0.00691223 -0.0138001
                      CHANNELS 3 Zrotation Xrotation Yrotation
                      End Site
                      {
                        OFFSET -2.0404 -0.1441 0.0027
                      }
                    }
                  }
                }
                JOINT RightHandRing1
                {
                  OFFSET -8.5234 0.597198 -2.0164
                  CHANNELS 3 Zrotation Xrotation Yrotation
                  JOINT RightHandRing2
                  {
                    OFFSET -3.7188 -0.188309 -0.2328
                    CHANNELS 3 Zrotation Xrotation Yrotation
                    JOINT RightHandRing3
                    {
                      OFFSET -2.1191 -0.106598 -0.1332
                      CHANNELS 3 Zrotation Xrotation Yrotation
                      End Site
                      {
                        OFFSET -1.8737 -0.2304 -0.0886
                      }
                    }
                  }
                }
                JOINT RightHandPinky1
                {
                  OFFSET -7.9094 -0.601105 -3.4825
                  CHANNELS 3 Zrotation Xrotation Yrotation
                  JOINT RightHandPinky2
                  {
                    OFFSET -2.2874 -0.477005 -0.6314
                    CHANNELS 3 Zrotation Xrotation Yrotation
                    JOINT RightHandPinky3
                    {
                      OFFSET -1.6774 -0.349396 -0.4633
                      CHANNELS 3 Zrotation Xrotation Yrotation
                      End Site
                      {
                        OFFSET -1.4888 -0.4091 -0.3416
                      }
                    }
                  }
                }
                JOINT RightHandThumb1
                {
                  OFFSET -1.833 -1.38751 1.3896
                  CHANNELS 3 Zrotation Xrotation Yrotation
                  JOINT RightHandThumb2
                  {
                    OFFSET -3.41299 -1.12099 2.5732
                    CHANNELS 3 Zrotation Xrotation Yrotation
                    JOINT RightHandThumb3
                    {
                      OFFSET -2.24741 -0.804108 1.6192
                      CHANNELS 3 Zrotation Xrotation Yrotation
                      End Site
                      {
                        OFFSET -1.6527 -0.5689 1.1317
                      }
                    }
                  }
                }
              }
            }
          }
        }
      }
    }
  }
  JOINT RightUpLeg
  {
    OFFSET -9.1966 3.8861 -0.7581
    CHANNELS 3 Zrotation Xrotation Yrotation
    JOINT RightLeg
    {
      OFFSET -0.7359 -41.0265 0
      CHANNELS 3 Zrotation Xrotation Yrotation
      JOINT RightFoot
      {
        OFFSET 0 -40.2855 0
        CHANNELS 3 Zrotation Xrotation Yrotation
        JOINT RightToeBase
        {
          OFFSET 0 -5.6122 11.7359
          CHANNELS 3 Zrotation Xrotation Yrotation
          End Site
          {
            OFFSET 0 0 7.8731
          }
        }
      }
    }
  }
  JOINT LeftUpLeg
  {
    OFFSET 9.1965 3.8864 -0.7581
    CHANNELS 3 Zrotation Xrotation Yrotation
    JOINT LeftLeg
    {
      OFFSET 0.7359 -41.0268 0
      CHANNELS 3 Zrotation Xrotation Yrotation
      JOINT LeftFoot
      {
        OFFSET 0 -40.2855 0
        CHANNELS 3 Zrotation Xrotation Yrotation
        JOINT LeftToeBase
        {
          OFFSET 0 -5.6122 11.7359
          CHANNELS 3 Zrotation Xrotation Yrotation
          End Site
          {
            OFFSET 0 0 7.8731
          }
        }
      }
    }
  }
}
MOTION
Frames:	4
Frame Time:	0.0333333
5.84602e-005 68.8428 3.50346 0 0 -0 0 0 -0 0 0 -0 0 0 -0 0 0 -0 0 0 -0 0 0 -0 0 0 -0 0 0 -0 0 0 -0 0 0 -0 0 0 -0 0 0 -0 0 0 -0 -0.0146107 -8.87603e-005 -2.63497e-007 2.99804e-018 -2.42657e-020 -1.42182e-022 0 0 -0 -0.0187562 -0.001176 5.858e-005 5.06224e-018 3.88251e-019 1.21329e-020 0 0 -0 -0.012269 -0.00324817 0.000675346 -1.74678e-018 3.88251e-019 -0 0 0 -0 0 0 -0 0 0 -0 0 0 -0 0 0 -0 0 0 -0 0 0 -0 0 0 -0 0 0 -0 0 0 -0 0 0 -0 0.0149955 -9.10982e-005 2.64101e-007 -9.69331e-018 1.21329e-020 -4.7394e-023 0 0 -0 0.0189956 -0.00119102 -5.96516e-005 -5.41541e-019 0 2.42657e-020 0 0 -0 0.0122698 -0.00324857 -0.000673756 -2.00796e-019 0 -1.94126e-019 0 0 -0 0 0 -0 0 0 -0 3.39842 1.33031 -0.0637918 -5.65207e-008 0.834868 -0.000436188 -3.39935 -2.16518 -0.0642563 -8.89002e-024 -1.18485e-023 -1.48106e-024 -3.39844 1.35642 0.0640283 -3.18788e-007 0.782166 -0.000588827 3.39931 -2.13858 0.0634662 1.1399e-023 0 -0 
4.44907 32.7241 -24.8239 0 0 -0 0.124458 -0.100146 -0.0456537 0.248837 -0.20039 -0.0910899 0.248837 -0.20039 -0.09109 0.2062 -0.0587482 0.157553 -0.000712565 0.121501 0.060275 -11.3596 0.235917 -2.08077 -23.2531 5.95292 -29.3752 -14.8291 8.95584 -25.3074 -3.85195 23.0719 0.0445009 -2.72416e-007 3.85375e-007 -1.25125e-006 -3.18055e-015 4.77083e-015 1.59028e-015 -1.32417e-031 -1.59028e-015 -4.77083e-015 -2.72416e-007 3.85375e-007 -1.25125e-006 -0.0145705 -8.36918e-005 -3.38479e-006 1.27222e-014 4.77083e-015 1.59028e-015 -2.72416e-007 3.85375e-007 -1.25125e-006 -0.01877 -0.00117566 5.98841e-005 -2.70742e-007 3.85686e-007 -1.25119e-006 -2.72416e-007 3.85375e-007 -1.25125e-006 -0.012246 -0.00324131 0.000678437 -3.18055e-015 7.95139e-015 -0 -2.72416e-007 3.85375e-007 -1.25125e-006 -3.18055e-015 4.77083e-015 1.59028e-015 -1.32417e-031 -1.59028e-015 -4.77083e-015 14.0156 0.367557 1.99216 22.8272 5.59064 28.0937 15.4425 8.36088 18.2061 3.87342 -34.9769 0.0011795 -9.93923e-016 1.78906e-015 -1.59028e-014 3.77691e-015 3.77691e-015 -1.90833e-014 4.96962e-015 6.16232e-015 -9.54166e-015 -9.93923e-016 1.78906e-015 -1.59028e-014 0.0149599 -9.16678e-005 6.41137e-007 2.66918e-006 -5.61728e-007 7.50388e-007 -9.93923e-016 1.78906e-015 -1.59028e-014 0.019002 -0.00119263 -5.92262e-005 2.18663e-015 -2.98177e-015 -3.18055e-015 -9.93923e-016 1.78906e-015 -1.59028e-014 0.0122549 -0.00324365 -0.000675462 1.87591e-031 -3.37934e-015 3.18055e-015 -9.93923e-016 1.78906e-015 -1.59028e-014 3.77691e-015 3.77691e-015 -1.90833e-014 4.96962e-015 6.16232e-015 -9.54166e-015 0.179358 -35.4329 -4.58964 -134.401 88.124 134.704 -7.43572 29.2661 -1.90428 -7.95139e-016 7.95139e-016 -1.98785e-016 -0.150664 -35.4594 4.58513 135.75 88.1055 -136.033 7.47783 28.9154 1.87261 3.97569e-016 -1.11319e-014 4.96962e-016 
7.91026 4.58783 -46.9193 0 0 -0 0.221056 -0.166722 -0.0814045 0.441878 -0.333756 -0.162166 0.441879 -0.333756 -0.162166 0.411474 -0.122823 0.316847 -0.000256433 0.243044 0.120647 -20.1863 0.332613 -3.75478 -37.6561 7.41745 -52.5147 -21.3235 12.4375 -45.7287 -7.00175 40.9983 -0.00298113 -2.84607e-007 1.29744e-007 6.81889e-008 -1.5179e-006 6.91967e-007 3.63674e-007 -2.84606e-007 1.29744e-007 6.81889e-008 -2.84607e-007 1.29744e-007 6.81889e-008 -0.0146038 -9.05412e-005 4.34665e-006 -2.84607e-007 1.29735e-007 6.82057e-008 -2.84607e-007 1.29744e-007 6.81889e-008 -0.0187665 -0.00117954 6.39507e-005 -2.84606e-007 1.29733e-007 6.82131e-008 -2.84607e-007 1.29744e-007 6.81889e-008 -0.0122479 -0.00324195 0.000671028 -2.84604e-007 1.29738e-007 6.82109e-008 -2.84607e-007 1.29744e-007 6.81889e-008 -1.5179e-006 6.91967e-007 3.63674e-007 -2.84606e-007 1.29744e-007 6.81889e-008 24.8568 0.555174 3.48613 37.2609 7.27398 50.2624 23.8971 13.2194 33.0093 6.99693 -62.2024 -0.00262284 1.25431e-006 -8.34385e-007 -1.60131e-006 7.42862e-007 -1.10323e-006 -6.66896e-007 -1.59028e-015 -1.59028e-015 9.54166e-015 1.25431e-006 -8.34385e-007 -1.60131e-006 0.0150022 -9.28587e-005 4.0947e-007 -4.77083e-015 -3.18055e-015 -6.36111e-015 1.25431e-006 -8.34385e-007 -1.60131e-006 0.0190052 -0.0011944 -5.95609e-005 1.25185e-006 -8.34496e-007 -1.60118e-006 1.25431e-006 -8.34385e-007 -1.60131e-006 0.0122642 -0.00325255 -0.000674086 1.59028e-015 -2.06736e-014 3.18055e-015 1.25431e-006 -8.34385e-007 -1.60131e-006 7.42862e-007 -1.10323e-006 -6.66896e-007 -1.59028e-015 -1.59028e-015 9.54166e-015 -5.90515 -63.2985 -19.3088 -175.274 20.3319 167.973 -2.24984 55.9097 -11.8093 -2.02147e-007 -2.67265e-008 9.29013e-007 5.94727 -63.2564 19.3539 175.319 20.2707 -167.977 2.53848 55.2308 11.5897 2.05751e-007 -1.87992e-008 -5.35212e-008 
8.40535 0.574859 -50.1356 0 0 -0 0.235322 -0.133718 -0.087144 0.470443 -0.267793 -0.173739 0.470442 -0.267793 -0.173739 0.61075 -0.202373 0.482244 0.00418576 0.364712 0.181311 -21.4658 0.015844 -4.20687 -39.5041 7.18323 -55.7138 -21.9251 12.4663 -48.4906 -7.89469 43.486 -0.409838 1.59028e-015 1.59028e-015 1.27222e-014 3.90445e-007 -1.52982e-007 -7.63677e-008 1.05934e-030 3.18055e-015 -1.90833e-014 1.59028e-015 1.59028e-015 1.27222e-014 -0.0146222 -8.95883e-005 5.05866e-006 1.59028e-015 0 1.27222e-014 1.59028e-015 1.59028e-015 1.27222e-014 -0.01874 -0.00117466 5.81905e-005 -3.2095e-008 -7.6399e-007 1.83072e-006 1.59028e-015 1.59028e-015 1.27222e-014 -0.0122756 -0.00325208 0.000676668 0 1.59028e-015 -0 1.59028e-015 1.59028e-015 1.27222e-014 3.90445e-007 -1.52982e-007 -7.63677e-008 1.05934e-030 3.18055e-015 -1.90833e-014 26.2386 0.208157 3.48572 39.2402 7.2829 53.5376 24.9352 13.7495 35.2532 7.8576 -66.1736 -0.0322141 5.48869e-007 -1.3156e-006 3.45808e-006 -5.48868e-007 1.3156e-006 -3.45808e-006 5.48869e-007 -1.3156e-006 3.45808e-006 5.48869e-007 -1.3156e-006 3.45808e-006 0.0150064 -9.2495e-005 -5.9105e-006 5.48771e-007 -1.31514e-006 3.45826e-006 5.48869e-007 -1.3156e-006 3.45808e-006 0.0189795 -0.00119211 -5.79714e-005 3.58804e-007 -9.18424e-007 5.22981e-006 5.48869e-007 -1.3156e-006 3.45808e-006 0.0122994 -0.00325506 -0.000690624 5.48892e-007 -1.3152e-006 3.45821e-006 5.48869e-007 -1.3156e-006 3.45808e-006 -5.48868e-007 1.3156e-006 -3.45808e-006 5.48869e-007 -1.3156e-006 3.45808e-006 -5.69374 -68.0486 -26.3821 -176.344 10.5916 163.514 5.68354 60.1457 -20.0446 -6.89459e-008 -5.12482e-009 8.73506e-007 5.75188 -67.9641 26.5641 176.385 10.4979 -163.442 -5.19979 59.3839 19.6724 1.10271e-008 1.68903e-006 -8.09894e-007 
